<svg id="visual" viewBox="0 0 960 540" width="960" height="540" xmlns="http://www.w3.org/2000/svg" xmlns:xlink="http://www.w3.org/1999/xlink" version="1.1"><rect x="0" y="0" width="960" height="540" fill="#F8FFE5"></rect><defs><linearGradient id="grad1_0" x1="43.8%" y1="0%" x2="100%" y2="100%"><stop offset="14.444444444444446%" stop-color="#f8ffe5" stop-opacity="1"></stop><stop offset="85.55555555555554%" stop-color="#f8ffe5" stop-opacity="1"></stop></linearGradient></defs><defs><linearGradient id="grad2_0" x1="0%" y1="0%" x2="56.3%" y2="100%"><stop offset="14.444444444444446%" stop-color="#f8ffe5" stop-opacity="1"></stop><stop offset="85.55555555555554%" stop-color="#f8ffe5" stop-opacity="1"></stop></linearGradient></defs><g transform="translate(960, 0)"><path d="M0 243C-22.6 235.3 -45.3 227.6 -72.6 223.5C-100 219.4 -132 218.8 -142.8 196.6C-153.7 174.3 -143.3 130.4 -144 104.6C-144.8 78.9 -156.6 71.3 -175 56.9C-193.4 42.5 -218.2 21.2 -243 0L0 0Z" fill="#1B9AAA"></path></g><g transform="translate(0, 540)"><path d="M0 -243C27.7 -242.5 55.5 -241.9 72 -221.6C88.5 -201.3 93.8 -161.2 99.9 -137.5C106 -113.9 113 -106.7 139.2 -101.1C165.3 -95.5 210.6 -91.7 231.1 -75.1C251.6 -58.5 247.3 -29.3 243 0L0 0Z" fill="#1B9AAA"></path></g></svg>