<svg id="visual" viewBox="0 0 960 540" width="960" height="540" xmlns="http://www.w3.org/2000/svg" xmlns:xlink="http://www.w3.org/1999/xlink" version="1.1"><rect x="0" y="0" width="960" height="540" fill="#F8FFE5"></rect><defs><linearGradient id="grad1_0" x1="43.8%" y1="100%" x2="100%" y2="0%"><stop offset="14.444444444444446%" stop-color="#f8ffe5" stop-opacity="1"></stop><stop offset="85.55555555555554%" stop-color="#f8ffe5" stop-opacity="1"></stop></linearGradient></defs><defs><linearGradient id="grad2_0" x1="0%" y1="100%" x2="56.3%" y2="0%"><stop offset="14.444444444444446%" stop-color="#f8ffe5" stop-opacity="1"></stop><stop offset="85.55555555555554%" stop-color="#f8ffe5" stop-opacity="1"></stop></linearGradient></defs><g transform="translate(960, 540)"><path d="M-243 0C-219.9 -17.5 -196.8 -35 -193.1 -62.7C-189.3 -90.5 -204.8 -128.5 -187.7 -136.4C-170.6 -144.2 -120.8 -121.8 -99.9 -137.5C-79 -153.3 -86.9 -207.2 -75.1 -231.1C-63.2 -255 -31.6 -249 0 -243L0 0Z" fill="#1B9AAA"></path></g><g transform="translate(0, 0)"><path d="M243 0C246.5 29.7 250.1 59.5 231.1 75.1C212.2 90.7 170.7 92.1 153.7 111.7C136.7 131.2 144 168.8 131.1 180.4C118.1 192 84.9 177.5 59.6 183.6C34.4 189.6 17.2 216.3 0 243L0 0Z" fill="#1B9AAA"></path></g></svg>